<svg xmlns="http://www.w3.org/2000/svg" xmlns:v="https://svgstorm.com"
viewBox = "0 0 500 500"
width="500"
height="500">
<g fill="None" fill-opacity="0.0" stroke="#116F9E" stroke-opacity="1.00" stroke-width="0.3"><path d="
M 0.00 102.00 
C 4.32 100.70 7.26 104.34 8.00 108.00
C 17.70 108.70 25.21 114.67 35.00 110.00
C 34.30 115.71 31.38 126.02 37.00 129.00
C 33.95 130.69 32.49 129.17 30.00 128.00
C 30.56 130.52 28.81 134.30 31.00 136.00
C 32.73 132.11 36.16 135.73 39.00 136.00
C 37.51 137.47 35.22 138.74 33.00 139.00
C 36.59 142.50 40.80 145.21 45.23 148.77 C 49.66 152.33 58.30 145.36 64.00 148.00
C 62.72 142.34 73.06 143.02 73.00 148.00
C 80.83 141.78 70.27 126.45 80.00 125.00
C 78.43 119.69 82.64 119.50 85.00 123.00
C 78.68 123.96 82.16 132.45 77.00 133.00
C 79.09 136.53 81.10 140.32 80.00 146.00
C 86.52 146.97 83.20 155.44 84.00 160.00
C 77.32 156.14 73.47 167.51 80.00 168.00
C 80.88 172.42 79.74 177.74 74.00 176.00
C 75.34 169.65 70.67 166.40 72.00 160.00
C 60.64 156.52 64.58 169.12 64.00 176.00
C 74.68 173.30 67.35 187.39 71.00 192.00
C 72.72 189.73 71.73 186.66 72.00 184.00
C 76.46 183.01 81.23 184.55 80.00 190.00
C 82.39 184.41 83.87 189.98 80.00 192.00
C 85.01 189.26 88.84 186.53 95.00 184.00
C 104.04 177.68 113.36 173.47 124.00 171.00
C 132.80 168.95 143.61 169.86 152.00 172.00
C 155.88 172.51 159.26 173.00 163.00 174.00
C 175.12 177.24 189.90 182.04 200.00 190.00
C 200.70 191.02 196.57 184.94 193.00 184.00
C 200.36 183.91 211.88 174.57 216.00 184.00
C 225.66 185.08 229.11 181.84 238.02 180.02 C 246.94 178.21 248.32 193.28 256.00 192.00
C 258.11 199.33 265.25 204.18 273.00 206.00
C 272.69 213.75 260.02 217.06 260.00 224.00
C 268.98 213.60 280.64 202.45 292.00 194.00
C 300.29 187.83 308.58 182.92 318.00 179.00
C 326.41 175.50 337.48 171.76 347.00 171.00
C 353.55 169.74 361.53 169.95 368.00 171.00
C 380.88 171.70 393.18 177.44 404.00 184.00
C 405.55 184.94 407.42 185.75 409.00 187.00
C 413.34 190.43 417.61 194.71 421.00 199.00
C 422.33 200.68 423.02 202.38 424.00 204.00
C 426.93 207.82 429.82 211.02 431.00 216.00
C 431.11 216.47 431.00 217.00 431.00 217.00
C 433.47 214.62 429.55 210.22 433.00 208.00
C 434.82 212.90 441.78 206.64 444.75 202.75 C 447.73 198.87 454.35 195.62 453.00 192.00
C 462.14 189.34 482.68 197.61 480.00 181.00
C 492.81 183.70 490.19 167.92 488.00 160.00
C 491.35 161.39 495.24 167.21 500.00 162.00
L 500.00 0.00
L 0.00 0.00
L 0.00 102.00 Z"/>
</g>
<g fill="None" fill-opacity="0.0" stroke="#1282AC" stroke-opacity="1.00" stroke-width="0.3"><path d="
M 0.00 393.00 
C 5.87 391.64 7.14 396.21 2.00 398.00
C 6.56 397.97 9.96 396.73 14.00 399.00
C 9.12 399.66 12.42 404.87 16.00 405.00
C 14.31 395.87 23.22 383.69 31.89 386.11 C 40.57 388.54 43.27 399.98 54.00 398.00
C 49.51 402.47 55.95 417.69 47.00 415.00
C 46.00 416.95 46.69 422.87 49.00 419.00
C 48.83 422.39 52.80 424.11 56.00 424.00
C 55.55 429.85 64.46 430.95 60.00 437.00
C 65.01 435.42 64.02 440.86 64.00 444.00
C 69.33 444.00 74.67 444.00 80.00 444.00
C 78.37 449.50 84.75 447.78 88.00 448.00
C 88.00 440.00 88.00 432.00 88.00 424.00
C 94.44 425.67 97.61 422.44 96.00 416.00
C 89.56 417.67 86.39 414.44 88.00 408.00
C 94.44 409.67 97.61 406.44 96.00 400.00
C 87.56 402.72 85.38 392.55 86.00 386.00 C 86.62 379.45 88.76 374.17 83.00 368.00
C 89.52 366.19 87.84 357.81 94.00 356.00
C 91.62 368.65 101.79 371.84 111.00 376.00
C 109.94 378.67 107.74 380.92 108.00 384.00
C 116.20 389.99 131.16 392.55 140.25 394.19 C 149.35 395.82 164.66 386.19 172.00 396.00
C 176.13 392.47 178.18 397.90 182.23 399.77 C 186.28 401.64 193.48 403.00 192.00 409.00
C 187.34 409.22 182.93 408.47 179.00 408.00
C 178.51 411.40 178.92 413.97 182.00 415.00
C 178.99 415.21 176.23 416.56 173.00 416.00
C 167.65 421.73 164.39 432.11 156.00 433.00
C 155.78 440.88 158.41 448.05 158.00 456.00
C 151.79 454.02 151.31 459.22 152.00 464.00
C 139.46 460.50 145.26 475.73 144.00 483.00
C 133.74 485.34 135.67 477.68 141.00 474.00
C 137.23 471.68 132.61 471.80 128.00 472.00
C 129.34 478.35 124.67 481.60 126.00 488.00
C 119.79 486.02 119.31 491.22 120.00 496.00
C 123.33 496.22 129.49 494.44 128.00 500.00
L 301.00 500.00
C 301.13 492.51 297.53 487.37 298.00 480.00
C 296.07 483.16 293.41 484.02 294.78 479.78 C 296.16 475.53 287.69 475.84 289.23 472.77 C 290.77 469.70 287.26 468.77 288.00 464.00
C 282.03 464.31 281.78 455.13 276.00 456.00
C 274.10 448.91 280.42 438.09 272.00 435.00
C 271.54 431.53 273.99 424.51 268.00 426.00
C 272.37 409.14 271.50 391.08 272.00 372.00
C 276.15 372.38 280.18 372.25 283.00 369.00
C 278.69 362.82 292.04 361.64 291.92 353.92 C 291.81 346.21 293.56 336.83 298.70 331.70 C 303.84 326.57 297.38 314.49 305.00 311.00
C 303.69 309.02 300.91 309.25 299.00 308.00
C 303.99 304.65 309.46 312.98 314.00 312.00
C 311.80 309.68 307.68 308.97 306.00 306.00
C 297.18 300.54 289.18 294.46 281.00 288.00
C 274.07 282.53 267.57 275.67 261.00 270.00
C 259.20 268.44 255.60 266.70 258.00 264.00
C 253.55 266.36 255.65 264.44 253.00 263.00
C 243.79 273.22 234.18 282.65 224.00 292.00
C 219.09 296.20 214.44 300.77 209.00 304.00
C 204.59 306.62 200.29 309.23 196.00 312.00
C 174.12 326.12 140.48 334.11 115.93 325.07 C 91.37 316.04 69.96 298.51 67.00 272.00
C 66.19 268.21 65.42 264.44 65.00 260.00
C 64.36 253.18 64.21 246.93 65.00 240.00
C 65.89 232.27 66.42 221.70 72.00 216.00
C 72.11 215.53 72.00 215.00 72.00 215.00
C 72.01 213.72 72.57 213.14 73.00 212.00
C 74.80 207.24 76.81 204.80 80.00 201.00
C 83.45 195.19 87.64 190.35 93.00 186.00
C 93.61 185.50 94.37 184.44 95.00 184.00
C 88.84 186.53 85.01 189.26 80.00 192.00
C 83.87 189.98 82.39 184.41 80.00 190.00
C 81.23 184.55 76.46 183.01 72.00 184.00
C 71.73 186.66 72.72 189.73 71.00 192.00
C 67.35 187.39 74.68 173.30 64.00 176.00
C 64.58 169.12 60.64 156.52 72.00 160.00
C 70.67 166.40 75.34 169.65 74.00 176.00
C 79.74 177.74 80.88 172.42 80.00 168.00
C 73.47 167.51 77.32 156.14 84.00 160.00
C 83.20 155.44 86.52 146.97 80.00 146.00
C 81.10 140.32 79.09 136.53 77.00 133.00
C 82.16 132.45 78.68 123.96 85.00 123.00
C 82.64 119.50 78.43 119.69 80.00 125.00
C 70.27 126.45 80.83 141.78 73.00 148.00
C 73.06 143.02 62.72 142.34 64.00 148.00
C 58.30 145.36 49.66 152.33 45.23 148.77 C 40.80 145.21 36.59 142.50 33.00 139.00
C 35.22 138.74 37.51 137.47 39.00 136.00
C 36.16 135.73 32.73 132.11 31.00 136.00
C 28.81 134.30 30.56 130.52 30.00 128.00
C 32.49 129.17 33.95 130.69 37.00 129.00
C 31.38 126.02 34.30 115.71 35.00 110.00
C 25.21 114.67 17.70 108.70 8.00 108.00
C 7.26 104.34 4.32 100.70 0.00 102.00
L 0.00 393.00 Z"/>
</g>
<g fill="None" fill-opacity="0.0" stroke="#1281AD" stroke-opacity="1.00" stroke-width="0.3"><path d="
M 431.00 217.00 
C 432.29 224.83 435.44 231.75 436.00 240.00
C 436.37 242.07 437.79 245.25 437.00 248.00
C 439.84 242.64 436.18 234.68 439.00 229.00
C 443.54 228.88 447.73 230.57 446.00 223.00
C 452.43 223.32 456.11 220.07 461.00 217.00
C 457.12 212.40 464.50 212.54 463.00 208.00
C 464.57 211.18 468.92 209.65 472.00 210.00
C 472.66 206.49 476.44 203.98 476.00 200.00
C 483.67 199.44 491.28 196.12 498.00 198.00
C 499.37 196.95 498.23 194.56 500.00 194.00
L 500.00 162.00
C 495.24 167.21 491.35 161.39 488.00 160.00
C 490.19 167.92 492.81 183.70 480.00 181.00
C 482.68 197.61 462.14 189.34 453.00 192.00
C 454.35 195.62 447.73 198.87 444.75 202.75 C 441.78 206.64 434.82 212.90 433.00 208.00
C 429.55 210.22 433.47 214.62 431.00 217.00 Z"/>
</g>
<g fill="None" fill-opacity="0.0" stroke="#72A7BD" stroke-opacity="1.00" stroke-width="0.3"><path d="
M 124.00 171.00 
C 133.09 169.98 143.25 170.86 152.00 172.00
C 143.61 169.86 132.80 168.95 124.00 171.00 Z"/>
</g>
<g fill="None" fill-opacity="0.0" stroke="#669DB0" stroke-opacity="1.00" stroke-width="0.3"><path d="
M 347.00 171.00 
C 353.78 170.46 361.21 170.63 368.00 171.00
C 361.53 169.95 353.55 169.74 347.00 171.00 Z"/>
</g>
<g fill="None" fill-opacity="0.0" stroke="#F7FAFA" stroke-opacity="1.00" stroke-width="0.3"><path d="
M 95.00 184.00 
C 94.37 184.44 93.61 185.50 93.00 186.00
C 90.73 189.26 85.68 195.09 82.25 199.25 C 78.81 203.40 76.95 211.90 72.00 215.00
C 72.00 215.00 72.11 215.53 72.00 216.00
C 70.14 223.95 66.81 232.34 65.00 240.00
C 64.21 246.93 64.36 253.18 65.00 260.00
C 65.75 263.57 66.55 267.96 67.00 272.00
C 69.96 298.51 91.37 316.04 115.93 325.07 C 140.48 334.11 174.12 326.12 196.00 312.00
C 201.68 307.05 206.60 302.96 213.00 299.00
C 221.95 293.46 229.26 284.15 237.25 277.25 C 245.23 270.35 251.99 257.73 262.00 258.00
C 258.88 254.44 263.27 251.67 265.00 249.00
C 273.16 239.45 282.22 230.49 291.30 222.30 C 300.39 214.11 311.44 205.82 322.69 200.69 C 333.95 195.57 353.34 187.84 366.00 193.00
C 367.15 193.14 367.33 193.82 368.00 194.00
C 372.74 195.26 377.41 196.01 382.00 198.00
C 396.87 201.91 413.04 215.61 414.00 232.00
C 414.10 233.66 413.89 235.34 414.00 237.00
C 415.51 244.86 415.61 251.40 414.00 259.00
C 413.89 260.66 414.06 262.34 414.00 264.00
C 412.89 296.72 372.67 316.45 345.00 303.00
C 343.92 302.68 343.14 302.28 342.00 302.00
C 326.92 298.37 314.56 288.69 301.00 282.00
C 301.30 283.25 302.83 283.71 303.00 285.00
C 304.47 286.09 306.33 287.22 307.00 289.00
C 301.93 288.90 299.41 283.22 295.00 282.00
C 285.51 278.09 278.36 269.36 269.00 265.00
C 269.91 268.19 267.81 269.66 266.00 270.00
C 278.99 287.17 295.88 298.93 315.23 309.77 C 334.58 320.61 363.10 329.73 386.00 322.00
C 388.27 321.27 390.79 320.92 393.00 320.00
C 417.70 306.96 429.54 284.70 434.00 257.00 C 438.46 229.30 425.39 201.40 404.00 184.00
C 393.18 177.44 380.88 171.70 368.00 171.00
C 361.21 170.63 353.78 170.46 347.00 171.00
C 337.48 171.76 326.41 175.50 318.00 179.00
C 311.81 183.15 302.17 188.07 294.78 193.78 C 287.38 199.48 280.46 207.00 273.30 213.30 C 266.15 219.60 260.91 227.11 253.75 233.75 C 246.58 240.38 239.31 225.61 233.25 219.75 C 227.19 213.89 218.21 206.21 212.00 200.00
C 210.17 198.17 207.96 197.19 206.00 196.00
C 192.05 187.54 177.67 179.76 163.00 174.00
C 159.26 173.00 155.88 172.51 152.00 172.00
C 143.25 170.86 133.09 169.98 124.00 171.00
C 113.36 173.47 104.04 177.68 95.00 184.00
M 148.00 309.00 
C 144.02 309.57 139.91 309.56 136.00 309.00
C 110.66 308.03 88.38 289.97 84.01 264.99 C 79.63 240.02 86.29 212.46 109.08 198.08 C 131.87 183.70 163.04 193.89 184.23 204.77 C 205.42 215.65 221.99 229.00 240.00 245.00
C 216.01 273.96 186.32 304.88 148.00 309.00 Z"/>
</g>
<g fill="None" fill-opacity="0.0" stroke="#AED7E6" stroke-opacity="1.00" stroke-width="0.3"><path d="
M 206.00 196.00 
C 205.21 195.29 204.73 193.65 204.00 193.00
C 202.48 192.09 201.39 191.10 200.00 190.00
C 189.90 182.04 175.12 177.24 163.00 174.00
C 177.67 179.76 192.05 187.54 206.00 196.00 Z"/>
</g>
<g fill="None" fill-opacity="0.0" stroke="#1483AA" stroke-opacity="1.00" stroke-width="0.3"><path d="
M 200.00 190.00 
C 201.39 191.10 202.48 192.09 204.00 193.00
C 209.70 196.43 214.74 201.08 220.08 204.92 C 225.42 208.75 228.74 215.32 234.25 218.75 C 239.76 222.19 242.62 231.44 248.00 234.00
C 251.20 235.20 251.76 233.62 254.00 231.00
C 255.96 228.70 258.07 226.24 260.00 224.00
C 260.02 217.06 272.69 213.75 273.00 206.00
C 265.25 204.18 258.11 199.33 256.00 192.00
C 248.32 193.28 246.94 178.21 238.02 180.02 C 229.11 181.84 225.66 185.08 216.00 184.00
C 211.88 174.57 200.36 183.91 193.00 184.00
C 196.57 184.94 200.70 191.02 200.00 190.00 Z"/>
</g>
<g fill="None" fill-opacity="0.0" stroke="#C6E8F3" stroke-opacity="1.00" stroke-width="0.3"><path d="
M 292.00 194.00 
C 278.98 205.35 266.32 218.68 254.00 231.00
C 251.76 233.62 251.20 235.20 248.00 234.00
C 240.77 231.28 236.97 221.12 230.75 216.25 C 224.53 211.38 218.32 204.70 212.00 200.00
C 218.21 206.21 227.19 213.89 233.25 219.75 C 239.31 225.61 246.58 240.38 253.75 233.75 C 260.91 227.11 266.15 219.60 273.30 213.30 C 280.46 207.00 287.38 199.48 294.78 193.78 C 302.17 188.07 311.81 183.15 318.00 179.00
C 308.58 182.92 300.29 187.83 292.00 194.00 Z"/>
</g>
<g fill="None" fill-opacity="0.0" stroke="#BEE6F1" stroke-opacity="1.00" stroke-width="0.3"><path d="
M 393.00 320.00 
C 404.84 315.07 416.88 303.48 424.00 293.00
C 432.51 277.23 437.28 258.86 436.00 240.00
C 435.44 231.75 432.29 224.83 431.00 217.00
C 431.00 217.00 431.11 216.47 431.00 216.00
C 428.25 212.57 426.36 207.90 424.00 204.00
C 423.02 202.38 422.33 200.68 421.00 199.00
C 417.38 195.09 412.86 190.57 409.00 187.00
C 407.42 185.75 405.55 184.94 404.00 184.00
C 425.39 201.40 438.46 229.30 434.00 257.00 C 429.54 284.70 417.70 306.96 393.00 320.00 Z"/>
</g>
<g fill="None" fill-opacity="0.0" stroke="#C2E7F0" stroke-opacity="1.00" stroke-width="0.3"><path d="
M 80.00 201.00 
C 77.78 204.73 74.97 208.40 73.00 212.00
C 72.57 213.14 72.01 213.72 72.00 215.00
C 76.95 211.90 78.81 203.40 82.25 199.25 C 85.68 195.09 90.73 189.26 93.00 186.00
C 87.64 190.35 83.45 195.19 80.00 201.00 Z"/>
</g>
<g fill="None" fill-opacity="0.0" stroke="#8FBACD" stroke-opacity="1.00" stroke-width="0.3"><path d="
M 421.00 199.00 
C 417.61 194.71 413.34 190.43 409.00 187.00
C 412.86 190.57 417.38 195.09 421.00 199.00 Z"/>
</g>
<g fill="None" fill-opacity="0.0" stroke="#1685AE" stroke-opacity="1.00" stroke-width="0.3"><path d="
M 136.00 309.00 
C 139.96 309.15 144.04 309.15 148.00 309.00
C 186.32 304.88 216.01 273.96 240.00 245.00
C 221.99 229.00 205.42 215.65 184.23 204.77 C 163.04 193.89 131.87 183.70 109.08 198.08 C 86.29 212.46 79.63 240.02 84.01 264.99 C 88.38 289.97 110.66 308.03 136.00 309.00 Z"/>
</g>
<g fill="None" fill-opacity="0.0" stroke="#C5E6F1" stroke-opacity="1.00" stroke-width="0.3"><path d="
M 265.00 249.00 
C 272.04 241.96 279.48 234.43 287.00 228.00
C 289.64 225.74 292.22 222.99 295.00 221.00
C 297.68 219.09 300.38 217.07 303.00 215.00
C 305.95 212.05 308.51 210.25 312.00 208.00
C 323.82 200.38 337.63 194.00 352.00 194.00
C 356.01 193.61 361.27 192.42 366.00 193.00
C 353.34 187.84 333.95 195.57 322.69 200.69 C 311.44 205.82 300.39 214.11 291.30 222.30 C 282.22 230.49 273.16 239.45 265.00 249.00 Z"/>
</g>
<g fill="None" fill-opacity="0.0" stroke="#7AB9CD" stroke-opacity="1.00" stroke-width="0.3"><path d="
M 206.00 196.00 
C 207.96 197.19 210.17 198.17 212.00 200.00
C 218.32 204.70 224.53 211.38 230.75 216.25 C 236.97 221.12 240.77 231.28 248.00 234.00
C 242.62 231.44 239.76 222.19 234.25 218.75 C 228.74 215.32 225.42 208.75 220.08 204.92 C 214.74 201.08 209.70 196.43 204.00 193.00
C 204.73 193.65 205.21 195.29 206.00 196.00 Z"/>
</g>
<g fill="None" fill-opacity="0.0" stroke="#71A0B3" stroke-opacity="1.00" stroke-width="0.3"><path d="
M 352.00 194.00 
C 357.26 194.00 362.77 193.52 368.00 194.00
C 367.33 193.82 367.15 193.14 366.00 193.00
C 361.27 192.42 356.01 193.61 352.00 194.00 Z"/>
</g>
<g fill="None" fill-opacity="0.0" stroke="#6DA9BF" stroke-opacity="1.00" stroke-width="0.3"><path d="
M 260.00 224.00 
C 258.07 226.24 255.96 228.70 254.00 231.00
C 266.32 218.68 278.98 205.35 292.00 194.00
C 280.64 202.45 268.98 213.60 260.00 224.00 Z"/>
</g>
<g fill="None" fill-opacity="0.0" stroke="#1477A1" stroke-opacity="1.00" stroke-width="0.3"><path d="
M 312.00 208.00 
C 309.07 210.38 306.05 212.59 303.00 215.00
C 300.38 217.07 297.68 219.09 295.00 221.00
C 289.50 225.61 285.41 231.38 280.00 236.00
C 275.33 239.99 265.95 247.66 268.00 251.00
C 267.91 247.47 274.57 244.41 276.30 241.30 C 278.03 238.19 283.57 235.99 286.00 233.00
C 286.34 236.13 283.16 236.73 282.00 239.00
C 287.06 238.07 292.40 238.44 294.00 231.00
C 301.98 232.39 308.27 238.79 314.75 244.25 C 321.23 249.71 332.32 253.30 340.22 249.22 C 348.13 245.15 362.71 239.98 368.00 248.00
C 372.10 240.71 383.99 245.97 390.08 240.08 C 396.18 234.19 403.15 233.36 410.00 228.00
C 410.21 229.63 410.90 232.83 413.00 231.00
C 410.50 225.36 408.69 220.17 405.00 215.00
C 402.04 211.46 397.68 208.85 395.00 205.00
C 394.60 204.80 394.00 205.00 394.00 205.00
C 391.72 203.58 389.09 201.04 387.00 200.00
C 385.36 199.36 383.41 198.61 382.00 198.00
C 377.41 196.01 372.74 195.26 368.00 194.00
C 362.77 193.52 357.26 194.00 352.00 194.00
C 337.63 194.00 323.82 200.38 312.00 208.00 Z"/>
</g>
<g fill="None" fill-opacity="0.0" stroke="#1398BD" stroke-opacity="1.00" stroke-width="0.3"><path d="
M 436.00 240.00 
C 437.28 258.86 432.51 277.23 424.00 293.00
C 419.55 301.25 414.17 304.97 407.77 311.77 C 401.37 318.57 391.27 319.67 384.00 324.00
C 383.39 324.36 382.34 325.23 382.00 326.00
C 394.92 326.62 403.90 312.62 415.00 312.00
C 412.40 307.55 421.15 299.60 426.00 298.00
C 425.13 301.98 430.19 302.25 433.00 302.00
C 428.34 294.05 446.98 301.70 440.00 294.00
C 447.56 293.05 457.11 300.28 463.00 293.00
C 464.51 300.68 471.79 289.51 473.00 296.00
C 471.34 291.46 477.62 292.63 476.00 288.00
C 469.54 287.21 474.40 279.13 478.30 275.30 C 482.21 271.48 480.13 261.10 482.00 256.00
C 485.21 259.37 485.19 268.65 482.00 272.00
C 489.46 271.73 484.62 260.92 486.00 256.00
C 490.45 256.19 493.76 255.23 498.00 256.00
C 498.27 247.97 497.00 238.94 500.00 232.00
L 500.00 194.00
C 498.23 194.56 499.37 196.95 498.00 198.00
C 491.28 196.12 483.67 199.44 476.00 200.00
C 476.44 203.98 472.66 206.49 472.00 210.00
C 468.92 209.65 464.57 211.18 463.00 208.00
C 464.50 212.54 457.12 212.40 461.00 217.00
C 456.11 220.07 452.43 223.32 446.00 223.00
C 447.73 230.57 443.54 228.88 439.00 229.00
C 436.18 234.68 439.84 242.64 437.00 248.00
C 437.79 245.25 436.37 242.07 436.00 240.00 Z"/>
</g>
<g fill="None" fill-opacity="0.0" stroke="#BFE4EF" stroke-opacity="1.00" stroke-width="0.3"><path d="
M 387.00 200.00 
C 389.80 201.09 392.34 202.46 394.00 205.00
C 394.00 205.00 394.60 204.80 395.00 205.00
C 398.62 206.77 402.73 211.83 405.00 215.00
C 408.69 220.17 410.50 225.36 413.00 231.00
C 413.15 231.34 413.88 231.74 414.00 232.00
C 413.04 215.61 396.87 201.91 382.00 198.00
C 383.41 198.61 385.36 199.36 387.00 200.00 Z"/>
</g>
<g fill="None" fill-opacity="0.0" stroke="#70A8BB" stroke-opacity="1.00" stroke-width="0.3"><path d="
M 394.00 205.00 
C 392.34 202.46 389.80 201.09 387.00 200.00
C 389.09 201.04 391.72 203.58 394.00 205.00 Z"/>
</g>
<g fill="None" fill-opacity="0.0" stroke="#80BBCE" stroke-opacity="1.00" stroke-width="0.3"><path d="
M 73.00 212.00 
C 74.97 208.40 77.78 204.73 80.00 201.00
C 76.81 204.80 74.80 207.24 73.00 212.00 Z"/>
</g>
<g fill="None" fill-opacity="0.0" stroke="#64A1B9" stroke-opacity="1.00" stroke-width="0.3"><path d="
M 431.00 216.00 
C 429.82 211.02 426.93 207.82 424.00 204.00
C 426.36 207.90 428.25 212.57 431.00 216.00 Z"/>
</g>
<g fill="None" fill-opacity="0.0" stroke="#5B9AB4" stroke-opacity="1.00" stroke-width="0.3"><path d="
M 405.00 215.00 
C 402.73 211.83 398.62 206.77 395.00 205.00
C 397.68 208.85 402.04 211.46 405.00 215.00 Z"/>
</g>
<g fill="None" fill-opacity="0.0" stroke="#7BADC2" stroke-opacity="1.00" stroke-width="0.3"><path d="
M 303.00 215.00 
C 306.05 212.59 309.07 210.38 312.00 208.00
C 308.51 210.25 305.95 212.05 303.00 215.00 Z"/>
</g>
<g fill="None" fill-opacity="0.0" stroke="#AEDDEB" stroke-opacity="1.00" stroke-width="0.3"><path d="
M 65.00 240.00 
C 66.81 232.34 70.14 223.95 72.00 216.00
C 66.42 221.70 65.89 232.27 65.00 240.00 Z"/>
</g>
<g fill="None" fill-opacity="0.0" stroke="#5EA0B9" stroke-opacity="1.00" stroke-width="0.3"><path d="
M 287.00 228.00 
C 284.58 230.42 282.37 233.63 280.00 236.00
C 285.41 231.38 289.50 225.61 295.00 221.00
C 292.22 222.99 289.64 225.74 287.00 228.00 Z"/>
</g>
<g fill="None" fill-opacity="0.0" stroke="#88C7DA" stroke-opacity="1.00" stroke-width="0.3"><path d="
M 265.00 249.00 
C 263.27 251.67 258.88 254.44 262.00 258.00
C 251.99 257.73 245.23 270.35 237.25 277.25 C 229.26 284.15 221.95 293.46 213.00 299.00
C 211.52 300.24 210.43 302.80 209.00 304.00
C 214.44 300.77 219.09 296.20 224.00 292.00
C 230.73 285.27 238.03 277.44 244.75 270.75 C 251.48 264.06 261.17 251.02 266.00 266.00
C 261.67 260.88 259.04 265.73 261.00 270.00
C 267.57 275.67 274.07 282.53 281.00 288.00
C 277.46 284.46 273.26 279.93 269.25 276.75 C 265.24 273.57 260.62 264.26 268.00 268.00
C 268.90 265.10 265.08 263.94 266.00 261.00
C 271.46 264.00 276.12 268.12 281.00 272.00
C 274.69 266.82 269.31 259.89 262.00 256.00
C 264.58 247.41 269.80 257.81 274.08 259.92 C 278.37 262.02 281.40 270.71 286.00 270.00
C 283.69 267.95 280.75 265.77 279.00 263.00
C 280.82 262.45 281.47 264.75 283.00 265.00
C 278.47 260.47 271.37 256.49 268.00 251.00
C 265.95 247.66 275.33 239.99 280.00 236.00
C 282.37 233.63 284.58 230.42 287.00 228.00
C 279.48 234.43 272.04 241.96 265.00 249.00 Z"/>
</g>
<g fill="None" fill-opacity="0.0" stroke="#138FB5" stroke-opacity="1.00" stroke-width="0.3"><path d="
M 268.00 251.00 
C 271.37 256.49 278.47 260.47 283.00 265.00
C 296.04 278.04 314.95 290.86 332.00 297.00
C 337.60 299.02 343.88 302.23 349.00 304.00
C 359.45 305.98 369.66 306.52 380.00 304.00
C 384.44 302.42 389.81 298.60 394.00 296.00
C 394.36 295.78 395.00 296.00 395.00 296.00
C 398.46 291.06 403.94 286.86 407.00 282.00
C 407.35 281.21 407.69 279.90 408.00 279.00
C 409.09 275.86 410.84 272.82 412.00 270.00
C 412.45 268.32 413.78 265.28 414.00 264.00
C 414.06 262.34 413.89 260.66 414.00 259.00
C 414.51 251.56 414.52 244.45 414.00 237.00
C 413.89 235.34 414.10 233.66 414.00 232.00
C 413.88 231.74 413.15 231.34 413.00 231.00
C 410.90 232.83 410.21 229.63 410.00 228.00
C 403.15 233.36 396.18 234.19 390.08 240.08 C 383.99 245.97 372.10 240.71 368.00 248.00
C 362.71 239.98 348.13 245.15 340.22 249.22 C 332.32 253.30 321.23 249.71 314.75 244.25 C 308.27 238.79 301.98 232.39 294.00 231.00
C 292.40 238.44 287.06 238.07 282.00 239.00
C 283.16 236.73 286.34 236.13 286.00 233.00
C 283.57 235.99 278.03 238.19 276.30 241.30 C 274.57 244.41 267.91 247.47 268.00 251.00 Z"/>
</g>
<g fill="None" fill-opacity="0.0" stroke="#11AECB" stroke-opacity="1.00" stroke-width="0.3"><path d="
M 384.00 324.00 
C 376.46 328.04 363.17 326.17 355.00 325.00
C 360.08 326.26 366.01 327.96 372.00 327.00
C 368.91 329.19 363.84 327.43 360.00 328.00
C 364.64 334.24 355.87 330.44 353.00 333.00
C 355.13 335.35 359.51 332.75 362.00 335.00
C 353.46 335.94 356.41 345.28 356.00 352.00
C 351.46 351.72 347.71 354.93 349.00 360.00
C 342.77 362.54 342.85 355.42 339.00 354.00
C 337.92 360.15 332.41 364.68 328.00 368.00
C 328.00 372.00 328.00 376.00 328.00 380.00
C 319.32 387.53 324.57 404.44 323.00 416.00
C 318.23 415.01 320.55 421.30 320.00 424.00
C 325.50 422.37 323.78 428.75 324.00 432.00
C 332.94 433.81 325.47 448.78 327.00 456.00
C 333.06 459.86 331.78 471.60 332.00 480.00
C 338.94 479.25 345.17 481.26 352.00 481.00
C 352.39 488.40 365.19 485.89 365.00 495.00
C 368.74 494.78 375.37 494.37 374.00 500.00
L 500.00 500.00
L 500.00 232.00
C 497.00 238.94 498.27 247.97 498.00 256.00
C 493.76 255.23 490.45 256.19 486.00 256.00
C 484.62 260.92 489.46 271.73 482.00 272.00
C 485.19 268.65 485.21 259.37 482.00 256.00
C 480.13 261.10 482.21 271.48 478.30 275.30 C 474.40 279.13 469.54 287.21 476.00 288.00
C 477.62 292.63 471.34 291.46 473.00 296.00
C 471.79 289.51 464.51 300.68 463.00 293.00
C 457.11 300.28 447.56 293.05 440.00 294.00
C 446.98 301.70 428.34 294.05 433.00 302.00
C 430.19 302.25 425.13 301.98 426.00 298.00
C 421.15 299.60 412.40 307.55 415.00 312.00
C 403.90 312.62 394.92 326.62 382.00 326.00
C 382.34 325.23 383.39 324.36 384.00 324.00 Z"/>
</g>
<g fill="None" fill-opacity="0.0" stroke="#BDEDF4" stroke-opacity="1.00" stroke-width="0.3"><path d="
M 414.00 259.00 
C 415.61 251.40 415.51 244.86 414.00 237.00
C 414.52 244.45 414.51 251.56 414.00 259.00 Z"/>
</g>
<g fill="None" fill-opacity="0.0" stroke="#3393B1" stroke-opacity="1.00" stroke-width="0.3"><path d="
M 281.00 272.00 
C 284.02 274.11 288.50 277.76 292.00 279.00
C 292.95 279.34 293.95 278.99 294.00 279.00
C 291.18 276.18 289.10 272.75 286.00 270.00
C 281.40 270.71 278.37 262.02 274.08 259.92 C 269.80 257.81 264.58 247.41 262.00 256.00
C 269.31 259.89 274.69 266.82 281.00 272.00 Z"/>
</g>
<g fill="None" fill-opacity="0.0" stroke="#449CB8" stroke-opacity="1.00" stroke-width="0.3"><path d="
M 224.00 292.00 
C 234.18 282.65 243.79 273.22 253.00 263.00
C 255.65 264.44 253.55 266.36 258.00 264.00
C 255.60 266.70 259.20 268.44 261.00 270.00
C 259.04 265.73 261.67 260.88 266.00 266.00
C 261.17 251.02 251.48 264.06 244.75 270.75 C 238.03 277.44 230.73 285.27 224.00 292.00 Z"/>
</g>
<g fill="None" fill-opacity="0.0" stroke="#C0E9F4" stroke-opacity="1.00" stroke-width="0.3"><path d="
M 67.00 272.00 
C 66.55 267.96 65.75 263.57 65.00 260.00
C 65.42 264.44 66.19 268.21 67.00 272.00 Z"/>
</g>
<g fill="None" fill-opacity="0.0" stroke="#C0E9F2" stroke-opacity="1.00" stroke-width="0.3"><path d="
M 281.00 288.00 
C 289.18 294.46 297.18 300.54 306.00 306.00
C 317.86 313.34 330.72 317.06 343.00 323.00
C 346.87 323.90 351.07 324.44 355.00 325.00
C 363.17 326.17 376.46 328.04 384.00 324.00
C 384.58 323.69 385.46 322.29 386.00 322.00
C 363.10 329.73 334.58 320.61 315.23 309.77 C 295.88 298.93 278.99 287.17 266.00 270.00
C 267.81 269.66 269.91 268.19 269.00 265.00
C 278.36 269.36 285.51 278.09 295.00 282.00
C 293.99 281.30 292.95 279.71 292.00 279.00
C 288.50 277.76 284.02 274.11 281.00 272.00
C 276.12 268.12 271.46 264.00 266.00 261.00
C 265.08 263.94 268.90 265.10 268.00 268.00
C 260.62 264.26 265.24 273.57 269.25 276.75 C 273.26 279.93 277.46 284.46 281.00 288.00 Z"/>
</g>
<g fill="None" fill-opacity="0.0" stroke="#B6E5F0" stroke-opacity="1.00" stroke-width="0.3"><path d="
M 286.00 270.00 
C 289.10 272.75 291.18 276.18 294.00 279.00
C 296.79 279.71 300.69 283.28 303.00 285.00
C 302.83 283.71 301.30 283.25 301.00 282.00
C 314.56 288.69 326.92 298.37 342.00 302.00
C 338.81 300.67 335.11 298.54 332.00 297.00
C 314.95 290.86 296.04 278.04 283.00 265.00
C 281.47 264.75 280.82 262.45 279.00 263.00
C 280.75 265.77 283.69 267.95 286.00 270.00 Z"/>
</g>
<g fill="None" fill-opacity="0.0" stroke="#BEEAF3" stroke-opacity="1.00" stroke-width="0.3"><path d="
M 412.00 270.00 
C 411.08 273.45 409.60 276.08 408.00 279.00
C 407.69 279.90 407.35 281.21 407.00 282.00
C 405.01 286.42 399.53 293.78 395.00 296.00
C 395.00 296.00 394.36 295.78 394.00 296.00
C 391.39 300.00 384.48 302.91 380.00 304.00
C 369.66 306.52 359.45 305.98 349.00 304.00
C 347.90 303.79 346.12 303.34 345.00 303.00
C 372.67 316.45 412.89 296.72 414.00 264.00
C 413.78 265.28 412.45 268.32 412.00 270.00 Z"/>
</g>
<g fill="None" fill-opacity="0.0" stroke="#6CB7C9" stroke-opacity="1.00" stroke-width="0.3"><path d="
M 408.00 279.00 
C 409.60 276.08 411.08 273.45 412.00 270.00
C 410.84 272.82 409.09 275.86 408.00 279.00 Z"/>
</g>
<g fill="None" fill-opacity="0.0" stroke="#7DABBC" stroke-opacity="1.00" stroke-width="0.3"><path d="
M 295.00 282.00 
C 299.41 283.22 301.93 288.90 307.00 289.00
C 306.33 287.22 304.47 286.09 303.00 285.00
C 300.69 283.28 296.79 279.71 294.00 279.00
C 293.95 278.99 292.95 279.34 292.00 279.00
C 292.95 279.71 293.99 281.30 295.00 282.00 Z"/>
</g>
<g fill="None" fill-opacity="0.0" stroke="#72BDCE" stroke-opacity="1.00" stroke-width="0.3"><path d="
M 395.00 296.00 
C 399.53 293.78 405.01 286.42 407.00 282.00
C 403.94 286.86 398.46 291.06 395.00 296.00 Z"/>
</g>
<g fill="None" fill-opacity="0.0" stroke="#7ECBDC" stroke-opacity="1.00" stroke-width="0.3"><path d="
M 393.00 320.00 
C 390.79 320.92 388.27 321.27 386.00 322.00
C 385.46 322.29 384.58 323.69 384.00 324.00
C 391.27 319.67 401.37 318.57 407.77 311.77 C 414.17 304.97 419.55 301.25 424.00 293.00
C 416.88 303.48 404.84 315.07 393.00 320.00 Z"/>
</g>
<g fill="None" fill-opacity="0.0" stroke="#6AB9CC" stroke-opacity="1.00" stroke-width="0.3"><path d="
M 380.00 304.00 
C 384.48 302.91 391.39 300.00 394.00 296.00
C 389.81 298.60 384.44 302.42 380.00 304.00 Z"/>
</g>
<g fill="None" fill-opacity="0.0" stroke="#63B3C4" stroke-opacity="1.00" stroke-width="0.3"><path d="
M 342.00 302.00 
C 343.14 302.28 343.92 302.68 345.00 303.00
C 346.12 303.34 347.90 303.79 349.00 304.00
C 343.88 302.23 337.60 299.02 332.00 297.00
C 335.11 298.54 338.81 300.67 342.00 302.00 Z"/>
</g>
<g fill="None" fill-opacity="0.0" stroke="#D0F1F7" stroke-opacity="1.00" stroke-width="0.3"><path d="
M 196.00 312.00 
C 200.29 309.23 204.59 306.62 209.00 304.00
C 210.43 302.80 211.52 300.24 213.00 299.00
C 206.60 302.96 201.68 307.05 196.00 312.00 Z"/>
</g>
<g fill="None" fill-opacity="0.0" stroke="#1194BA" stroke-opacity="1.00" stroke-width="0.3"><path d="
M 301.00 500.00 
L 318.00 500.00
C 318.88 494.50 320.87 485.76 314.00 484.00
C 317.75 472.15 303.98 465.65 309.00 454.00
C 305.14 451.27 302.19 448.61 298.00 447.00
C 298.40 442.68 298.21 438.26 294.00 442.00
C 295.83 425.91 289.89 408.23 295.00 392.00
C 299.08 393.01 300.48 389.88 304.00 389.00
C 303.61 382.93 306.00 376.46 310.25 372.25 C 314.50 368.04 312.86 360.20 320.00 359.00
C 317.62 347.96 327.90 342.30 333.00 336.00
C 335.78 336.87 336.50 339.98 340.00 339.00
C 340.33 332.57 344.82 326.27 351.00 326.00
C 347.86 326.56 345.25 324.29 343.00 323.00
C 330.72 317.06 317.86 313.34 306.00 306.00
C 307.68 308.97 311.80 309.68 314.00 312.00
C 309.46 312.98 303.99 304.65 299.00 308.00
C 300.91 309.25 303.69 309.02 305.00 311.00
C 297.38 314.49 303.84 326.57 298.70 331.70 C 293.56 336.83 291.81 346.21 291.92 353.92 C 292.04 361.64 278.69 362.82 283.00 369.00
C 280.18 372.25 276.15 372.38 272.00 372.00
C 271.50 391.08 272.37 409.14 268.00 426.00
C 273.99 424.51 271.54 431.53 272.00 435.00
C 280.42 438.09 274.10 448.91 276.00 456.00
C 281.78 455.13 282.03 464.31 288.00 464.00
C 287.26 468.77 290.77 469.70 289.23 472.77 C 287.69 475.84 296.16 475.53 294.78 479.78 C 293.41 484.02 296.07 483.16 298.00 480.00
C 297.53 487.37 301.13 492.51 301.00 500.00 Z"/>
</g>
<g fill="None" fill-opacity="0.0" stroke="#83BFD2" stroke-opacity="1.00" stroke-width="0.3"><path d="
M 148.00 309.00 
C 144.04 309.15 139.96 309.15 136.00 309.00
C 139.91 309.56 144.02 309.57 148.00 309.00 Z"/>
</g>
<g fill="None" fill-opacity="0.0" stroke="#11A0C2" stroke-opacity="1.00" stroke-width="0.3"><path d="
M 318.00 500.00 
L 374.00 500.00
C 375.37 494.37 368.74 494.78 365.00 495.00
C 365.19 485.89 352.39 488.40 352.00 481.00
C 345.17 481.26 338.94 479.25 332.00 480.00
C 331.78 471.60 333.06 459.86 327.00 456.00
C 325.47 448.78 332.94 433.81 324.00 432.00
C 323.78 428.75 325.50 422.37 320.00 424.00
C 320.55 421.30 318.23 415.01 323.00 416.00
C 324.57 404.44 319.32 387.53 328.00 380.00
C 328.00 376.00 328.00 372.00 328.00 368.00
C 332.41 364.68 337.92 360.15 339.00 354.00
C 342.85 355.42 342.77 362.54 349.00 360.00
C 347.71 354.93 351.46 351.72 356.00 352.00
C 356.41 345.28 353.46 335.94 362.00 335.00
C 359.51 332.75 355.13 335.35 353.00 333.00
C 355.87 330.44 364.64 334.24 360.00 328.00
C 363.84 327.43 368.91 329.19 372.00 327.00
C 366.01 327.96 360.08 326.26 355.00 325.00
C 351.07 324.44 346.87 323.90 343.00 323.00
C 345.25 324.29 347.86 326.56 351.00 326.00
C 344.82 326.27 340.33 332.57 340.00 339.00
C 336.50 339.98 335.78 336.87 333.00 336.00
C 327.90 342.30 317.62 347.96 320.00 359.00
C 312.86 360.20 314.50 368.04 310.25 372.25 C 306.00 376.46 303.61 382.93 304.00 389.00
C 300.48 389.88 299.08 393.01 295.00 392.00
C 289.89 408.23 295.83 425.91 294.00 442.00
C 298.21 438.26 298.40 442.68 298.00 447.00
C 302.19 448.61 305.14 451.27 309.00 454.00
C 303.98 465.65 317.75 472.15 314.00 484.00
C 320.87 485.76 318.88 494.50 318.00 500.00 Z"/>
</g>
<g fill="None" fill-opacity="0.0" stroke="#1177A3" stroke-opacity="1.00" stroke-width="0.3"><path d="
M 0.00 393.00 
L 0.00 500.00
L 128.00 500.00
C 129.49 494.44 123.33 496.22 120.00 496.00
C 119.31 491.22 119.79 486.02 126.00 488.00
C 124.67 481.60 129.34 478.35 128.00 472.00
C 132.61 471.80 137.23 471.68 141.00 474.00
C 135.67 477.68 133.74 485.34 144.00 483.00
C 145.26 475.73 139.46 460.50 152.00 464.00
C 151.31 459.22 151.79 454.02 158.00 456.00
C 158.41 448.05 155.78 440.88 156.00 433.00
C 164.39 432.11 167.65 421.73 173.00 416.00
C 176.23 416.56 178.99 415.21 182.00 415.00
C 178.92 413.97 178.51 411.40 179.00 408.00
C 182.93 408.47 187.34 409.22 192.00 409.00
C 193.48 403.00 186.28 401.64 182.23 399.77 C 178.18 397.90 176.13 392.47 172.00 396.00
C 164.66 386.19 149.35 395.82 140.25 394.19 C 131.16 392.55 116.20 389.99 108.00 384.00
C 107.74 380.92 109.94 378.67 111.00 376.00
C 101.79 371.84 91.62 368.65 94.00 356.00
C 87.84 357.81 89.52 366.19 83.00 368.00
C 88.76 374.17 86.62 379.45 86.00 386.00 C 85.38 392.55 87.56 402.72 96.00 400.00
C 97.61 406.44 94.44 409.67 88.00 408.00
C 86.39 414.44 89.56 417.67 96.00 416.00
C 97.61 422.44 94.44 425.67 88.00 424.00
C 88.00 432.00 88.00 440.00 88.00 448.00
C 84.75 447.78 78.37 449.50 80.00 444.00
C 74.67 444.00 69.33 444.00 64.00 444.00
C 64.02 440.86 65.01 435.42 60.00 437.00
C 64.46 430.95 55.55 429.85 56.00 424.00
C 52.80 424.11 48.83 422.39 49.00 419.00
C 46.69 422.87 46.00 416.95 47.00 415.00
C 55.95 417.69 49.51 402.47 54.00 398.00
C 43.27 399.98 40.57 388.54 31.89 386.11 C 23.22 383.69 14.31 395.87 16.00 405.00
C 12.42 404.87 9.12 399.66 14.00 399.00
C 9.96 396.73 6.56 397.97 2.00 398.00
C 7.14 396.21 5.87 391.64 0.00 393.00 Z"/>
</g>
<g fill="#116F9E" fill-opacity="1.00" stroke="None">
<path d="
M 0.00 102.00 
C 4.32 100.70 7.26 104.34 8.00 108.00
C 17.70 108.70 25.21 114.67 35.00 110.00
C 34.30 115.71 31.38 126.02 37.00 129.00
C 33.95 130.69 32.49 129.17 30.00 128.00
C 30.56 130.52 28.81 134.30 31.00 136.00
C 32.73 132.11 36.16 135.73 39.00 136.00
C 37.51 137.47 35.22 138.74 33.00 139.00
C 36.59 142.50 40.80 145.21 45.23 148.77 C 49.66 152.33 58.30 145.36 64.00 148.00
C 62.72 142.34 73.06 143.02 73.00 148.00
C 80.83 141.78 70.27 126.45 80.00 125.00
C 78.43 119.69 82.64 119.50 85.00 123.00
C 78.68 123.96 82.16 132.45 77.00 133.00
C 79.09 136.53 81.10 140.32 80.00 146.00
C 86.52 146.97 83.20 155.44 84.00 160.00
C 77.32 156.14 73.47 167.51 80.00 168.00
C 80.88 172.42 79.74 177.74 74.00 176.00
C 75.34 169.65 70.67 166.40 72.00 160.00
C 60.64 156.52 64.58 169.12 64.00 176.00
C 74.68 173.30 67.35 187.39 71.00 192.00
C 72.72 189.73 71.73 186.66 72.00 184.00
C 76.46 183.01 81.23 184.55 80.00 190.00
C 82.39 184.41 83.87 189.98 80.00 192.00
C 85.01 189.26 88.84 186.53 95.00 184.00
C 104.04 177.68 113.36 173.47 124.00 171.00
C 132.80 168.95 143.61 169.86 152.00 172.00
C 155.88 172.51 159.26 173.00 163.00 174.00
C 175.12 177.24 189.90 182.04 200.00 190.00
C 200.70 191.02 196.57 184.94 193.00 184.00
C 200.36 183.91 211.88 174.57 216.00 184.00
C 225.66 185.08 229.11 181.84 238.02 180.02 C 246.94 178.21 248.32 193.28 256.00 192.00
C 258.11 199.33 265.25 204.18 273.00 206.00
C 272.69 213.75 260.02 217.06 260.00 224.00
C 268.98 213.60 280.64 202.45 292.00 194.00
C 300.29 187.83 308.58 182.92 318.00 179.00
C 326.41 175.50 337.48 171.76 347.00 171.00
C 353.55 169.74 361.53 169.95 368.00 171.00
C 380.88 171.70 393.18 177.44 404.00 184.00
C 405.55 184.94 407.42 185.75 409.00 187.00
C 413.34 190.43 417.61 194.71 421.00 199.00
C 422.33 200.68 423.02 202.38 424.00 204.00
C 426.93 207.82 429.82 211.02 431.00 216.00
C 431.11 216.47 431.00 217.00 431.00 217.00
C 433.47 214.62 429.55 210.22 433.00 208.00
C 434.82 212.90 441.78 206.64 444.75 202.75 C 447.73 198.87 454.35 195.62 453.00 192.00
C 462.14 189.34 482.68 197.61 480.00 181.00
C 492.81 183.70 490.19 167.92 488.00 160.00
C 491.35 161.39 495.24 167.21 500.00 162.00
L 500.00 0.00
L 0.00 0.00
L 0.00 102.00 Z"/>
</g>
<g fill="#1282AC" fill-opacity="1.00" stroke="None">
<path d="
M 0.00 393.00 
C 5.87 391.64 7.14 396.21 2.00 398.00
C 6.56 397.97 9.96 396.73 14.00 399.00
C 9.12 399.66 12.42 404.87 16.00 405.00
C 14.31 395.87 23.22 383.69 31.89 386.11 C 40.57 388.54 43.27 399.98 54.00 398.00
C 49.51 402.47 55.95 417.69 47.00 415.00
C 46.00 416.95 46.69 422.87 49.00 419.00
C 48.83 422.39 52.80 424.11 56.00 424.00
C 55.55 429.85 64.46 430.95 60.00 437.00
C 65.01 435.42 64.02 440.86 64.00 444.00
C 69.33 444.00 74.67 444.00 80.00 444.00
C 78.37 449.50 84.75 447.78 88.00 448.00
C 88.00 440.00 88.00 432.00 88.00 424.00
C 94.44 425.67 97.61 422.44 96.00 416.00
C 89.56 417.67 86.39 414.44 88.00 408.00
C 94.44 409.67 97.61 406.44 96.00 400.00
C 87.56 402.72 85.38 392.55 86.00 386.00 C 86.62 379.45 88.76 374.17 83.00 368.00
C 89.52 366.19 87.84 357.81 94.00 356.00
C 91.62 368.65 101.79 371.84 111.00 376.00
C 109.94 378.67 107.74 380.92 108.00 384.00
C 116.20 389.99 131.16 392.55 140.25 394.19 C 149.35 395.82 164.66 386.19 172.00 396.00
C 176.13 392.47 178.18 397.90 182.23 399.77 C 186.28 401.64 193.48 403.00 192.00 409.00
C 187.34 409.22 182.93 408.47 179.00 408.00
C 178.51 411.40 178.92 413.97 182.00 415.00
C 178.99 415.21 176.23 416.56 173.00 416.00
C 167.65 421.73 164.39 432.11 156.00 433.00
C 155.78 440.88 158.41 448.05 158.00 456.00
C 151.79 454.02 151.31 459.22 152.00 464.00
C 139.46 460.50 145.26 475.73 144.00 483.00
C 133.74 485.34 135.67 477.68 141.00 474.00
C 137.23 471.68 132.61 471.80 128.00 472.00
C 129.34 478.35 124.67 481.60 126.00 488.00
C 119.79 486.02 119.31 491.22 120.00 496.00
C 123.33 496.22 129.49 494.44 128.00 500.00
L 301.00 500.00
C 301.13 492.51 297.53 487.37 298.00 480.00
C 296.07 483.16 293.41 484.02 294.78 479.78 C 296.16 475.53 287.69 475.84 289.23 472.77 C 290.77 469.70 287.26 468.77 288.00 464.00
C 282.03 464.31 281.78 455.13 276.00 456.00
C 274.10 448.91 280.42 438.09 272.00 435.00
C 271.54 431.53 273.99 424.51 268.00 426.00
C 272.37 409.14 271.50 391.08 272.00 372.00
C 276.15 372.38 280.18 372.25 283.00 369.00
C 278.69 362.82 292.04 361.64 291.92 353.92 C 291.81 346.21 293.56 336.83 298.70 331.70 C 303.84 326.57 297.38 314.49 305.00 311.00
C 303.69 309.02 300.91 309.25 299.00 308.00
C 303.99 304.65 309.46 312.98 314.00 312.00
C 311.80 309.68 307.68 308.97 306.00 306.00
C 297.18 300.54 289.18 294.46 281.00 288.00
C 274.07 282.53 267.57 275.67 261.00 270.00
C 259.20 268.44 255.60 266.70 258.00 264.00
C 253.55 266.36 255.65 264.44 253.00 263.00
C 243.79 273.22 234.18 282.65 224.00 292.00
C 219.09 296.20 214.44 300.77 209.00 304.00
C 204.59 306.62 200.29 309.23 196.00 312.00
C 174.12 326.12 140.48 334.11 115.93 325.07 C 91.37 316.04 69.96 298.51 67.00 272.00
C 66.19 268.21 65.42 264.44 65.00 260.00
C 64.36 253.18 64.21 246.93 65.00 240.00
C 65.89 232.27 66.42 221.70 72.00 216.00
C 72.11 215.53 72.00 215.00 72.00 215.00
C 72.01 213.72 72.57 213.14 73.00 212.00
C 74.80 207.24 76.81 204.80 80.00 201.00
C 83.45 195.19 87.64 190.35 93.00 186.00
C 93.61 185.50 94.37 184.44 95.00 184.00
C 88.84 186.53 85.01 189.26 80.00 192.00
C 83.87 189.98 82.39 184.41 80.00 190.00
C 81.23 184.55 76.46 183.01 72.00 184.00
C 71.73 186.66 72.72 189.73 71.00 192.00
C 67.35 187.39 74.68 173.30 64.00 176.00
C 64.58 169.12 60.64 156.52 72.00 160.00
C 70.67 166.40 75.34 169.65 74.00 176.00
C 79.74 177.74 80.88 172.42 80.00 168.00
C 73.47 167.51 77.32 156.14 84.00 160.00
C 83.20 155.44 86.52 146.97 80.00 146.00
C 81.10 140.32 79.09 136.53 77.00 133.00
C 82.16 132.45 78.68 123.96 85.00 123.00
C 82.64 119.50 78.43 119.69 80.00 125.00
C 70.27 126.45 80.83 141.78 73.00 148.00
C 73.06 143.02 62.72 142.34 64.00 148.00
C 58.30 145.36 49.66 152.33 45.23 148.77 C 40.80 145.21 36.59 142.50 33.00 139.00
C 35.22 138.74 37.51 137.47 39.00 136.00
C 36.16 135.73 32.73 132.11 31.00 136.00
C 28.81 134.30 30.56 130.52 30.00 128.00
C 32.49 129.17 33.95 130.69 37.00 129.00
C 31.38 126.02 34.30 115.71 35.00 110.00
C 25.21 114.67 17.70 108.70 8.00 108.00
C 7.26 104.34 4.32 100.70 0.00 102.00
L 0.00 393.00 Z"/>
</g>
<g fill="#1281AD" fill-opacity="1.00" stroke="None">
<path d="
M 431.00 217.00 
C 432.29 224.83 435.44 231.75 436.00 240.00
C 436.37 242.07 437.79 245.25 437.00 248.00
C 439.84 242.64 436.18 234.68 439.00 229.00
C 443.54 228.88 447.73 230.57 446.00 223.00
C 452.43 223.32 456.11 220.07 461.00 217.00
C 457.12 212.40 464.50 212.54 463.00 208.00
C 464.57 211.18 468.92 209.65 472.00 210.00
C 472.66 206.49 476.44 203.98 476.00 200.00
C 483.67 199.44 491.28 196.12 498.00 198.00
C 499.37 196.95 498.23 194.56 500.00 194.00
L 500.00 162.00
C 495.24 167.21 491.35 161.39 488.00 160.00
C 490.19 167.92 492.81 183.70 480.00 181.00
C 482.68 197.61 462.14 189.34 453.00 192.00
C 454.35 195.62 447.73 198.87 444.75 202.75 C 441.78 206.64 434.82 212.90 433.00 208.00
C 429.55 210.22 433.47 214.62 431.00 217.00 Z"/>
</g>
<g fill="#72A7BD" fill-opacity="1.00" stroke="None">
<path d="
M 124.00 171.00 
C 133.09 169.98 143.25 170.86 152.00 172.00
C 143.61 169.86 132.80 168.95 124.00 171.00 Z"/>
</g>
<g fill="#669DB0" fill-opacity="1.00" stroke="None">
<path d="
M 347.00 171.00 
C 353.78 170.46 361.21 170.63 368.00 171.00
C 361.53 169.95 353.55 169.74 347.00 171.00 Z"/>
</g>
<g fill="#F7FAFA" fill-opacity="1.00" stroke="None">
<path d="
M 95.00 184.00 
C 94.37 184.44 93.61 185.50 93.00 186.00
C 90.73 189.26 85.68 195.09 82.25 199.25 C 78.81 203.40 76.95 211.90 72.00 215.00
C 72.00 215.00 72.11 215.53 72.00 216.00
C 70.14 223.95 66.81 232.34 65.00 240.00
C 64.21 246.93 64.36 253.18 65.00 260.00
C 65.75 263.57 66.55 267.96 67.00 272.00
C 69.96 298.51 91.37 316.04 115.93 325.07 C 140.48 334.11 174.12 326.12 196.00 312.00
C 201.68 307.05 206.60 302.96 213.00 299.00
C 221.95 293.46 229.26 284.15 237.25 277.25 C 245.23 270.35 251.99 257.73 262.00 258.00
C 258.88 254.44 263.27 251.67 265.00 249.00
C 273.16 239.45 282.22 230.49 291.30 222.30 C 300.39 214.11 311.44 205.82 322.69 200.69 C 333.95 195.57 353.34 187.84 366.00 193.00
C 367.15 193.14 367.33 193.82 368.00 194.00
C 372.74 195.26 377.41 196.01 382.00 198.00
C 396.87 201.91 413.04 215.61 414.00 232.00
C 414.10 233.66 413.89 235.34 414.00 237.00
C 415.51 244.86 415.61 251.40 414.00 259.00
C 413.89 260.66 414.06 262.34 414.00 264.00
C 412.89 296.72 372.67 316.45 345.00 303.00
C 343.92 302.68 343.14 302.28 342.00 302.00
C 326.92 298.37 314.56 288.69 301.00 282.00
C 301.30 283.25 302.83 283.71 303.00 285.00
C 304.47 286.09 306.33 287.22 307.00 289.00
C 301.93 288.90 299.41 283.22 295.00 282.00
C 285.51 278.09 278.36 269.36 269.00 265.00
C 269.91 268.19 267.81 269.66 266.00 270.00
C 278.99 287.17 295.88 298.93 315.23 309.77 C 334.58 320.61 363.10 329.73 386.00 322.00
C 388.27 321.27 390.79 320.92 393.00 320.00
C 417.70 306.96 429.54 284.70 434.00 257.00 C 438.46 229.30 425.39 201.40 404.00 184.00
C 393.18 177.44 380.88 171.70 368.00 171.00
C 361.21 170.63 353.78 170.46 347.00 171.00
C 337.48 171.76 326.41 175.50 318.00 179.00
C 311.81 183.15 302.17 188.07 294.78 193.78 C 287.38 199.48 280.46 207.00 273.30 213.30 C 266.15 219.60 260.91 227.11 253.75 233.75 C 246.58 240.38 239.31 225.61 233.25 219.75 C 227.19 213.89 218.21 206.21 212.00 200.00
C 210.17 198.17 207.96 197.19 206.00 196.00
C 192.05 187.54 177.67 179.76 163.00 174.00
C 159.26 173.00 155.88 172.51 152.00 172.00
C 143.25 170.86 133.09 169.98 124.00 171.00
C 113.36 173.47 104.04 177.68 95.00 184.00
M 148.00 309.00 
C 144.02 309.57 139.91 309.56 136.00 309.00
C 110.66 308.03 88.38 289.97 84.01 264.99 C 79.63 240.02 86.29 212.46 109.08 198.08 C 131.87 183.70 163.04 193.89 184.23 204.77 C 205.42 215.65 221.99 229.00 240.00 245.00
C 216.01 273.96 186.32 304.88 148.00 309.00 Z"/>
</g>
<g fill="#AED7E6" fill-opacity="1.00" stroke="None">
<path d="
M 206.00 196.00 
C 205.21 195.29 204.73 193.65 204.00 193.00
C 202.48 192.09 201.39 191.10 200.00 190.00
C 189.90 182.04 175.12 177.24 163.00 174.00
C 177.67 179.76 192.05 187.54 206.00 196.00 Z"/>
</g>
<g fill="#1483AA" fill-opacity="1.00" stroke="None">
<path d="
M 200.00 190.00 
C 201.39 191.10 202.48 192.09 204.00 193.00
C 209.70 196.43 214.74 201.08 220.08 204.92 C 225.42 208.75 228.74 215.32 234.25 218.75 C 239.76 222.19 242.62 231.44 248.00 234.00
C 251.20 235.20 251.76 233.62 254.00 231.00
C 255.96 228.70 258.07 226.24 260.00 224.00
C 260.02 217.06 272.69 213.75 273.00 206.00
C 265.25 204.18 258.11 199.33 256.00 192.00
C 248.32 193.28 246.94 178.21 238.02 180.02 C 229.11 181.84 225.66 185.08 216.00 184.00
C 211.88 174.57 200.36 183.91 193.00 184.00
C 196.57 184.94 200.70 191.02 200.00 190.00 Z"/>
</g>
<g fill="#C6E8F3" fill-opacity="1.00" stroke="None">
<path d="
M 292.00 194.00 
C 278.98 205.35 266.32 218.68 254.00 231.00
C 251.76 233.62 251.20 235.20 248.00 234.00
C 240.77 231.28 236.97 221.12 230.75 216.25 C 224.53 211.38 218.32 204.70 212.00 200.00
C 218.21 206.21 227.19 213.89 233.25 219.75 C 239.31 225.61 246.58 240.38 253.75 233.75 C 260.91 227.11 266.15 219.60 273.30 213.30 C 280.46 207.00 287.38 199.48 294.78 193.78 C 302.17 188.07 311.81 183.15 318.00 179.00
C 308.58 182.92 300.29 187.83 292.00 194.00 Z"/>
</g>
<g fill="#BEE6F1" fill-opacity="1.00" stroke="None">
<path d="
M 393.00 320.00 
C 404.84 315.07 416.88 303.48 424.00 293.00
C 432.51 277.23 437.28 258.86 436.00 240.00
C 435.44 231.75 432.29 224.83 431.00 217.00
C 431.00 217.00 431.11 216.47 431.00 216.00
C 428.25 212.57 426.36 207.90 424.00 204.00
C 423.02 202.38 422.33 200.68 421.00 199.00
C 417.38 195.09 412.86 190.57 409.00 187.00
C 407.42 185.75 405.55 184.94 404.00 184.00
C 425.39 201.40 438.46 229.30 434.00 257.00 C 429.54 284.70 417.70 306.96 393.00 320.00 Z"/>
</g>
<g fill="#C2E7F0" fill-opacity="1.00" stroke="None">
<path d="
M 80.00 201.00 
C 77.78 204.73 74.97 208.40 73.00 212.00
C 72.57 213.14 72.01 213.72 72.00 215.00
C 76.95 211.90 78.81 203.40 82.25 199.25 C 85.68 195.09 90.73 189.26 93.00 186.00
C 87.64 190.35 83.45 195.19 80.00 201.00 Z"/>
</g>
<g fill="#8FBACD" fill-opacity="1.00" stroke="None">
<path d="
M 421.00 199.00 
C 417.61 194.71 413.34 190.43 409.00 187.00
C 412.86 190.57 417.38 195.09 421.00 199.00 Z"/>
</g>
<g fill="#1685AE" fill-opacity="1.00" stroke="None">
<path d="
M 136.00 309.00 
C 139.96 309.15 144.04 309.15 148.00 309.00
C 186.32 304.88 216.01 273.96 240.00 245.00
C 221.99 229.00 205.42 215.65 184.23 204.77 C 163.04 193.89 131.87 183.70 109.08 198.08 C 86.29 212.46 79.63 240.02 84.01 264.99 C 88.38 289.97 110.66 308.03 136.00 309.00 Z"/>
</g>
<g fill="#C5E6F1" fill-opacity="1.00" stroke="None">
<path d="
M 265.00 249.00 
C 272.04 241.96 279.48 234.43 287.00 228.00
C 289.64 225.74 292.22 222.99 295.00 221.00
C 297.68 219.09 300.38 217.07 303.00 215.00
C 305.95 212.05 308.51 210.25 312.00 208.00
C 323.82 200.38 337.63 194.00 352.00 194.00
C 356.01 193.61 361.27 192.42 366.00 193.00
C 353.34 187.84 333.95 195.57 322.69 200.69 C 311.44 205.82 300.39 214.11 291.30 222.30 C 282.22 230.49 273.16 239.45 265.00 249.00 Z"/>
</g>
<g fill="#7AB9CD" fill-opacity="1.00" stroke="None">
<path d="
M 206.00 196.00 
C 207.96 197.19 210.17 198.17 212.00 200.00
C 218.32 204.70 224.53 211.38 230.75 216.25 C 236.97 221.12 240.77 231.28 248.00 234.00
C 242.62 231.44 239.76 222.19 234.25 218.75 C 228.74 215.32 225.42 208.75 220.08 204.92 C 214.74 201.08 209.70 196.43 204.00 193.00
C 204.73 193.65 205.21 195.29 206.00 196.00 Z"/>
</g>
<g fill="#71A0B3" fill-opacity="1.00" stroke="None">
<path d="
M 352.00 194.00 
C 357.26 194.00 362.77 193.52 368.00 194.00
C 367.33 193.82 367.15 193.14 366.00 193.00
C 361.27 192.42 356.01 193.61 352.00 194.00 Z"/>
</g>
<g fill="#6DA9BF" fill-opacity="1.00" stroke="None">
<path d="
M 260.00 224.00 
C 258.07 226.24 255.96 228.70 254.00 231.00
C 266.32 218.68 278.98 205.35 292.00 194.00
C 280.64 202.45 268.98 213.60 260.00 224.00 Z"/>
</g>
<g fill="#1477A1" fill-opacity="1.00" stroke="None">
<path d="
M 312.00 208.00 
C 309.07 210.38 306.05 212.59 303.00 215.00
C 300.38 217.07 297.68 219.09 295.00 221.00
C 289.50 225.61 285.41 231.38 280.00 236.00
C 275.33 239.99 265.95 247.66 268.00 251.00
C 267.91 247.47 274.57 244.41 276.30 241.30 C 278.03 238.19 283.57 235.99 286.00 233.00
C 286.34 236.13 283.16 236.73 282.00 239.00
C 287.06 238.07 292.40 238.44 294.00 231.00
C 301.98 232.39 308.27 238.79 314.75 244.25 C 321.23 249.71 332.32 253.30 340.22 249.22 C 348.13 245.15 362.71 239.98 368.00 248.00
C 372.10 240.71 383.99 245.97 390.08 240.08 C 396.18 234.19 403.15 233.36 410.00 228.00
C 410.21 229.63 410.90 232.83 413.00 231.00
C 410.50 225.36 408.69 220.17 405.00 215.00
C 402.04 211.46 397.68 208.85 395.00 205.00
C 394.60 204.80 394.00 205.00 394.00 205.00
C 391.72 203.58 389.09 201.04 387.00 200.00
C 385.36 199.36 383.41 198.61 382.00 198.00
C 377.41 196.01 372.74 195.26 368.00 194.00
C 362.77 193.52 357.26 194.00 352.00 194.00
C 337.63 194.00 323.82 200.38 312.00 208.00 Z"/>
</g>
<g fill="#1398BD" fill-opacity="1.00" stroke="None">
<path d="
M 436.00 240.00 
C 437.28 258.86 432.51 277.23 424.00 293.00
C 419.55 301.25 414.17 304.97 407.77 311.77 C 401.37 318.57 391.27 319.67 384.00 324.00
C 383.39 324.36 382.34 325.23 382.00 326.00
C 394.92 326.62 403.90 312.62 415.00 312.00
C 412.40 307.55 421.15 299.60 426.00 298.00
C 425.13 301.98 430.19 302.25 433.00 302.00
C 428.34 294.05 446.98 301.70 440.00 294.00
C 447.56 293.05 457.11 300.28 463.00 293.00
C 464.51 300.68 471.79 289.51 473.00 296.00
C 471.34 291.46 477.62 292.63 476.00 288.00
C 469.54 287.21 474.40 279.13 478.30 275.30 C 482.21 271.48 480.13 261.10 482.00 256.00
C 485.21 259.37 485.19 268.65 482.00 272.00
C 489.46 271.73 484.62 260.92 486.00 256.00
C 490.45 256.19 493.76 255.23 498.00 256.00
C 498.27 247.97 497.00 238.94 500.00 232.00
L 500.00 194.00
C 498.23 194.56 499.37 196.95 498.00 198.00
C 491.28 196.12 483.67 199.44 476.00 200.00
C 476.44 203.98 472.66 206.49 472.00 210.00
C 468.92 209.65 464.57 211.18 463.00 208.00
C 464.50 212.54 457.12 212.40 461.00 217.00
C 456.11 220.07 452.43 223.32 446.00 223.00
C 447.73 230.57 443.54 228.88 439.00 229.00
C 436.18 234.68 439.84 242.64 437.00 248.00
C 437.79 245.25 436.37 242.07 436.00 240.00 Z"/>
</g>
<g fill="#BFE4EF" fill-opacity="1.00" stroke="None">
<path d="
M 387.00 200.00 
C 389.80 201.09 392.34 202.46 394.00 205.00
C 394.00 205.00 394.60 204.80 395.00 205.00
C 398.62 206.77 402.73 211.83 405.00 215.00
C 408.69 220.17 410.50 225.36 413.00 231.00
C 413.15 231.34 413.88 231.74 414.00 232.00
C 413.04 215.61 396.87 201.91 382.00 198.00
C 383.41 198.61 385.36 199.36 387.00 200.00 Z"/>
</g>
<g fill="#70A8BB" fill-opacity="1.00" stroke="None">
<path d="
M 394.00 205.00 
C 392.34 202.46 389.80 201.09 387.00 200.00
C 389.09 201.04 391.72 203.58 394.00 205.00 Z"/>
</g>
<g fill="#80BBCE" fill-opacity="1.00" stroke="None">
<path d="
M 73.00 212.00 
C 74.97 208.40 77.78 204.73 80.00 201.00
C 76.81 204.80 74.80 207.24 73.00 212.00 Z"/>
</g>
<g fill="#64A1B9" fill-opacity="1.00" stroke="None">
<path d="
M 431.00 216.00 
C 429.82 211.02 426.93 207.82 424.00 204.00
C 426.36 207.90 428.25 212.57 431.00 216.00 Z"/>
</g>
<g fill="#5B9AB4" fill-opacity="1.00" stroke="None">
<path d="
M 405.00 215.00 
C 402.73 211.83 398.62 206.77 395.00 205.00
C 397.68 208.85 402.04 211.46 405.00 215.00 Z"/>
</g>
<g fill="#7BADC2" fill-opacity="1.00" stroke="None">
<path d="
M 303.00 215.00 
C 306.05 212.59 309.07 210.38 312.00 208.00
C 308.51 210.25 305.95 212.05 303.00 215.00 Z"/>
</g>
<g fill="#AEDDEB" fill-opacity="1.00" stroke="None">
<path d="
M 65.00 240.00 
C 66.81 232.34 70.14 223.95 72.00 216.00
C 66.42 221.70 65.89 232.27 65.00 240.00 Z"/>
</g>
<g fill="#5EA0B9" fill-opacity="1.00" stroke="None">
<path d="
M 287.00 228.00 
C 284.58 230.42 282.37 233.63 280.00 236.00
C 285.41 231.38 289.50 225.61 295.00 221.00
C 292.22 222.99 289.64 225.74 287.00 228.00 Z"/>
</g>
<g fill="#88C7DA" fill-opacity="1.00" stroke="None">
<path d="
M 265.00 249.00 
C 263.27 251.67 258.88 254.44 262.00 258.00
C 251.99 257.73 245.23 270.35 237.25 277.25 C 229.26 284.15 221.95 293.46 213.00 299.00
C 211.52 300.24 210.43 302.80 209.00 304.00
C 214.44 300.77 219.09 296.20 224.00 292.00
C 230.73 285.27 238.03 277.44 244.75 270.75 C 251.48 264.06 261.17 251.02 266.00 266.00
C 261.67 260.88 259.04 265.73 261.00 270.00
C 267.57 275.67 274.07 282.53 281.00 288.00
C 277.46 284.46 273.26 279.93 269.25 276.75 C 265.24 273.57 260.62 264.26 268.00 268.00
C 268.90 265.10 265.08 263.94 266.00 261.00
C 271.46 264.00 276.12 268.12 281.00 272.00
C 274.69 266.82 269.31 259.89 262.00 256.00
C 264.58 247.41 269.80 257.81 274.08 259.92 C 278.37 262.02 281.40 270.71 286.00 270.00
C 283.69 267.95 280.75 265.77 279.00 263.00
C 280.82 262.45 281.47 264.75 283.00 265.00
C 278.47 260.47 271.37 256.49 268.00 251.00
C 265.95 247.66 275.33 239.99 280.00 236.00
C 282.37 233.63 284.58 230.42 287.00 228.00
C 279.48 234.43 272.04 241.96 265.00 249.00 Z"/>
</g>
<g fill="#138FB5" fill-opacity="1.00" stroke="None">
<path d="
M 268.00 251.00 
C 271.37 256.49 278.47 260.47 283.00 265.00
C 296.04 278.04 314.95 290.86 332.00 297.00
C 337.60 299.02 343.88 302.23 349.00 304.00
C 359.45 305.98 369.66 306.52 380.00 304.00
C 384.44 302.42 389.81 298.60 394.00 296.00
C 394.36 295.78 395.00 296.00 395.00 296.00
C 398.46 291.06 403.94 286.86 407.00 282.00
C 407.35 281.21 407.69 279.90 408.00 279.00
C 409.09 275.86 410.84 272.82 412.00 270.00
C 412.45 268.32 413.78 265.28 414.00 264.00
C 414.06 262.34 413.89 260.66 414.00 259.00
C 414.51 251.56 414.52 244.45 414.00 237.00
C 413.89 235.34 414.10 233.66 414.00 232.00
C 413.88 231.74 413.15 231.34 413.00 231.00
C 410.90 232.83 410.21 229.63 410.00 228.00
C 403.15 233.36 396.18 234.19 390.08 240.08 C 383.99 245.97 372.10 240.71 368.00 248.00
C 362.71 239.98 348.13 245.15 340.22 249.22 C 332.32 253.30 321.23 249.71 314.75 244.25 C 308.27 238.79 301.98 232.39 294.00 231.00
C 292.40 238.44 287.06 238.07 282.00 239.00
C 283.16 236.73 286.34 236.13 286.00 233.00
C 283.57 235.99 278.03 238.19 276.30 241.30 C 274.57 244.41 267.91 247.47 268.00 251.00 Z"/>
</g>
<g fill="#11AECB" fill-opacity="1.00" stroke="None">
<path d="
M 384.00 324.00 
C 376.46 328.04 363.17 326.17 355.00 325.00
C 360.08 326.26 366.01 327.96 372.00 327.00
C 368.91 329.19 363.84 327.43 360.00 328.00
C 364.64 334.24 355.87 330.44 353.00 333.00
C 355.13 335.35 359.51 332.75 362.00 335.00
C 353.46 335.94 356.41 345.28 356.00 352.00
C 351.46 351.72 347.71 354.93 349.00 360.00
C 342.77 362.54 342.85 355.42 339.00 354.00
C 337.92 360.15 332.41 364.68 328.00 368.00
C 328.00 372.00 328.00 376.00 328.00 380.00
C 319.32 387.53 324.57 404.44 323.00 416.00
C 318.23 415.01 320.55 421.30 320.00 424.00
C 325.50 422.37 323.78 428.75 324.00 432.00
C 332.94 433.81 325.47 448.78 327.00 456.00
C 333.06 459.86 331.78 471.60 332.00 480.00
C 338.94 479.25 345.17 481.26 352.00 481.00
C 352.39 488.40 365.19 485.89 365.00 495.00
C 368.74 494.78 375.37 494.37 374.00 500.00
L 500.00 500.00
L 500.00 232.00
C 497.00 238.94 498.27 247.97 498.00 256.00
C 493.76 255.23 490.45 256.19 486.00 256.00
C 484.62 260.92 489.46 271.73 482.00 272.00
C 485.19 268.65 485.21 259.37 482.00 256.00
C 480.13 261.10 482.21 271.48 478.30 275.30 C 474.40 279.13 469.54 287.21 476.00 288.00
C 477.62 292.63 471.34 291.46 473.00 296.00
C 471.79 289.51 464.51 300.68 463.00 293.00
C 457.11 300.28 447.56 293.05 440.00 294.00
C 446.98 301.70 428.34 294.05 433.00 302.00
C 430.19 302.25 425.13 301.98 426.00 298.00
C 421.15 299.60 412.40 307.55 415.00 312.00
C 403.90 312.62 394.92 326.62 382.00 326.00
C 382.34 325.23 383.39 324.36 384.00 324.00 Z"/>
</g>
<g fill="#BDEDF4" fill-opacity="1.00" stroke="None">
<path d="
M 414.00 259.00 
C 415.61 251.40 415.51 244.86 414.00 237.00
C 414.52 244.45 414.51 251.56 414.00 259.00 Z"/>
</g>
<g fill="#3393B1" fill-opacity="1.00" stroke="None">
<path d="
M 281.00 272.00 
C 284.02 274.11 288.50 277.76 292.00 279.00
C 292.95 279.34 293.95 278.99 294.00 279.00
C 291.18 276.18 289.10 272.75 286.00 270.00
C 281.40 270.71 278.37 262.02 274.08 259.92 C 269.80 257.81 264.58 247.41 262.00 256.00
C 269.31 259.89 274.69 266.82 281.00 272.00 Z"/>
</g>
<g fill="#449CB8" fill-opacity="1.00" stroke="None">
<path d="
M 224.00 292.00 
C 234.18 282.65 243.79 273.22 253.00 263.00
C 255.65 264.44 253.55 266.36 258.00 264.00
C 255.60 266.70 259.20 268.44 261.00 270.00
C 259.04 265.73 261.67 260.88 266.00 266.00
C 261.17 251.02 251.48 264.06 244.75 270.75 C 238.03 277.44 230.73 285.27 224.00 292.00 Z"/>
</g>
<g fill="#C0E9F4" fill-opacity="1.00" stroke="None">
<path d="
M 67.00 272.00 
C 66.55 267.96 65.75 263.57 65.00 260.00
C 65.42 264.44 66.19 268.21 67.00 272.00 Z"/>
</g>
<g fill="#C0E9F2" fill-opacity="1.00" stroke="None">
<path d="
M 281.00 288.00 
C 289.18 294.46 297.18 300.54 306.00 306.00
C 317.86 313.34 330.72 317.06 343.00 323.00
C 346.87 323.90 351.07 324.44 355.00 325.00
C 363.17 326.17 376.46 328.04 384.00 324.00
C 384.58 323.69 385.46 322.29 386.00 322.00
C 363.10 329.73 334.58 320.61 315.23 309.77 C 295.88 298.93 278.99 287.17 266.00 270.00
C 267.81 269.66 269.91 268.19 269.00 265.00
C 278.36 269.36 285.51 278.09 295.00 282.00
C 293.99 281.30 292.95 279.71 292.00 279.00
C 288.50 277.76 284.02 274.11 281.00 272.00
C 276.12 268.12 271.46 264.00 266.00 261.00
C 265.08 263.94 268.90 265.10 268.00 268.00
C 260.62 264.26 265.24 273.57 269.25 276.75 C 273.26 279.93 277.46 284.46 281.00 288.00 Z"/>
</g>
<g fill="#B6E5F0" fill-opacity="1.00" stroke="None">
<path d="
M 286.00 270.00 
C 289.10 272.75 291.18 276.18 294.00 279.00
C 296.79 279.71 300.69 283.28 303.00 285.00
C 302.83 283.71 301.30 283.25 301.00 282.00
C 314.56 288.69 326.92 298.37 342.00 302.00
C 338.81 300.67 335.11 298.54 332.00 297.00
C 314.95 290.86 296.04 278.04 283.00 265.00
C 281.47 264.75 280.82 262.45 279.00 263.00
C 280.75 265.77 283.69 267.95 286.00 270.00 Z"/>
</g>
<g fill="#BEEAF3" fill-opacity="1.00" stroke="None">
<path d="
M 412.00 270.00 
C 411.08 273.45 409.60 276.08 408.00 279.00
C 407.69 279.90 407.35 281.21 407.00 282.00
C 405.01 286.42 399.53 293.78 395.00 296.00
C 395.00 296.00 394.36 295.78 394.00 296.00
C 391.39 300.00 384.48 302.91 380.00 304.00
C 369.66 306.52 359.45 305.98 349.00 304.00
C 347.90 303.79 346.12 303.34 345.00 303.00
C 372.67 316.45 412.89 296.72 414.00 264.00
C 413.78 265.28 412.45 268.32 412.00 270.00 Z"/>
</g>
<g fill="#6CB7C9" fill-opacity="1.00" stroke="None">
<path d="
M 408.00 279.00 
C 409.60 276.08 411.08 273.45 412.00 270.00
C 410.84 272.82 409.09 275.86 408.00 279.00 Z"/>
</g>
<g fill="#7DABBC" fill-opacity="1.00" stroke="None">
<path d="
M 295.00 282.00 
C 299.41 283.22 301.93 288.90 307.00 289.00
C 306.33 287.22 304.47 286.09 303.00 285.00
C 300.69 283.28 296.79 279.71 294.00 279.00
C 293.95 278.99 292.95 279.34 292.00 279.00
C 292.95 279.71 293.99 281.30 295.00 282.00 Z"/>
</g>
<g fill="#72BDCE" fill-opacity="1.00" stroke="None">
<path d="
M 395.00 296.00 
C 399.53 293.78 405.01 286.42 407.00 282.00
C 403.94 286.86 398.46 291.06 395.00 296.00 Z"/>
</g>
<g fill="#7ECBDC" fill-opacity="1.00" stroke="None">
<path d="
M 393.00 320.00 
C 390.79 320.92 388.27 321.27 386.00 322.00
C 385.46 322.29 384.58 323.69 384.00 324.00
C 391.27 319.67 401.37 318.57 407.77 311.77 C 414.17 304.97 419.55 301.25 424.00 293.00
C 416.88 303.48 404.84 315.07 393.00 320.00 Z"/>
</g>
<g fill="#6AB9CC" fill-opacity="1.00" stroke="None">
<path d="
M 380.00 304.00 
C 384.48 302.91 391.39 300.00 394.00 296.00
C 389.81 298.60 384.44 302.42 380.00 304.00 Z"/>
</g>
<g fill="#63B3C4" fill-opacity="1.00" stroke="None">
<path d="
M 342.00 302.00 
C 343.14 302.28 343.92 302.68 345.00 303.00
C 346.12 303.34 347.90 303.79 349.00 304.00
C 343.88 302.23 337.60 299.02 332.00 297.00
C 335.11 298.54 338.81 300.67 342.00 302.00 Z"/>
</g>
<g fill="#D0F1F7" fill-opacity="1.00" stroke="None">
<path d="
M 196.00 312.00 
C 200.29 309.23 204.59 306.62 209.00 304.00
C 210.43 302.80 211.52 300.24 213.00 299.00
C 206.60 302.96 201.68 307.05 196.00 312.00 Z"/>
</g>
<g fill="#1194BA" fill-opacity="1.00" stroke="None">
<path d="
M 301.00 500.00 
L 318.00 500.00
C 318.88 494.50 320.87 485.76 314.00 484.00
C 317.75 472.15 303.98 465.65 309.00 454.00
C 305.14 451.27 302.19 448.61 298.00 447.00
C 298.40 442.68 298.21 438.26 294.00 442.00
C 295.83 425.91 289.89 408.23 295.00 392.00
C 299.08 393.01 300.48 389.88 304.00 389.00
C 303.61 382.93 306.00 376.46 310.25 372.25 C 314.50 368.04 312.86 360.20 320.00 359.00
C 317.62 347.96 327.90 342.30 333.00 336.00
C 335.78 336.87 336.50 339.98 340.00 339.00
C 340.33 332.57 344.82 326.27 351.00 326.00
C 347.86 326.56 345.25 324.29 343.00 323.00
C 330.72 317.06 317.86 313.34 306.00 306.00
C 307.68 308.97 311.80 309.68 314.00 312.00
C 309.46 312.98 303.99 304.65 299.00 308.00
C 300.91 309.25 303.69 309.02 305.00 311.00
C 297.38 314.49 303.84 326.57 298.70 331.70 C 293.56 336.83 291.81 346.21 291.92 353.92 C 292.04 361.64 278.69 362.82 283.00 369.00
C 280.18 372.25 276.15 372.38 272.00 372.00
C 271.50 391.08 272.37 409.14 268.00 426.00
C 273.99 424.51 271.54 431.53 272.00 435.00
C 280.42 438.09 274.10 448.91 276.00 456.00
C 281.78 455.13 282.03 464.31 288.00 464.00
C 287.26 468.77 290.77 469.70 289.23 472.77 C 287.69 475.84 296.16 475.53 294.78 479.78 C 293.41 484.02 296.07 483.16 298.00 480.00
C 297.53 487.37 301.13 492.51 301.00 500.00 Z"/>
</g>
<g fill="#83BFD2" fill-opacity="1.00" stroke="None">
<path d="
M 148.00 309.00 
C 144.04 309.15 139.96 309.15 136.00 309.00
C 139.91 309.56 144.02 309.57 148.00 309.00 Z"/>
</g>
<g fill="#11A0C2" fill-opacity="1.00" stroke="None">
<path d="
M 318.00 500.00 
L 374.00 500.00
C 375.37 494.37 368.74 494.78 365.00 495.00
C 365.19 485.89 352.39 488.40 352.00 481.00
C 345.17 481.26 338.94 479.25 332.00 480.00
C 331.78 471.60 333.06 459.86 327.00 456.00
C 325.47 448.78 332.94 433.81 324.00 432.00
C 323.78 428.75 325.50 422.37 320.00 424.00
C 320.55 421.30 318.23 415.01 323.00 416.00
C 324.57 404.44 319.32 387.53 328.00 380.00
C 328.00 376.00 328.00 372.00 328.00 368.00
C 332.41 364.68 337.92 360.15 339.00 354.00
C 342.85 355.42 342.77 362.54 349.00 360.00
C 347.71 354.93 351.46 351.72 356.00 352.00
C 356.41 345.28 353.46 335.94 362.00 335.00
C 359.51 332.75 355.13 335.35 353.00 333.00
C 355.87 330.44 364.64 334.24 360.00 328.00
C 363.84 327.43 368.91 329.19 372.00 327.00
C 366.01 327.96 360.08 326.26 355.00 325.00
C 351.07 324.44 346.87 323.90 343.00 323.00
C 345.25 324.29 347.86 326.56 351.00 326.00
C 344.82 326.27 340.33 332.57 340.00 339.00
C 336.50 339.98 335.78 336.87 333.00 336.00
C 327.90 342.30 317.62 347.96 320.00 359.00
C 312.86 360.20 314.50 368.04 310.25 372.25 C 306.00 376.46 303.61 382.93 304.00 389.00
C 300.48 389.88 299.08 393.01 295.00 392.00
C 289.89 408.23 295.83 425.91 294.00 442.00
C 298.21 438.26 298.40 442.68 298.00 447.00
C 302.19 448.61 305.14 451.27 309.00 454.00
C 303.98 465.65 317.75 472.15 314.00 484.00
C 320.87 485.76 318.88 494.50 318.00 500.00 Z"/>
</g>
<g fill="#1177A3" fill-opacity="1.00" stroke="None">
<path d="
M 0.00 393.00 
L 0.00 500.00
L 128.00 500.00
C 129.49 494.44 123.33 496.22 120.00 496.00
C 119.31 491.22 119.79 486.02 126.00 488.00
C 124.67 481.60 129.34 478.35 128.00 472.00
C 132.61 471.80 137.23 471.68 141.00 474.00
C 135.67 477.68 133.74 485.34 144.00 483.00
C 145.26 475.73 139.46 460.50 152.00 464.00
C 151.31 459.22 151.79 454.02 158.00 456.00
C 158.41 448.05 155.78 440.88 156.00 433.00
C 164.39 432.11 167.65 421.73 173.00 416.00
C 176.23 416.56 178.99 415.21 182.00 415.00
C 178.92 413.97 178.51 411.40 179.00 408.00
C 182.93 408.47 187.34 409.22 192.00 409.00
C 193.48 403.00 186.28 401.64 182.23 399.77 C 178.18 397.90 176.13 392.47 172.00 396.00
C 164.66 386.19 149.35 395.82 140.25 394.19 C 131.16 392.55 116.20 389.99 108.00 384.00
C 107.74 380.92 109.94 378.67 111.00 376.00
C 101.79 371.84 91.62 368.65 94.00 356.00
C 87.84 357.81 89.52 366.19 83.00 368.00
C 88.76 374.17 86.62 379.45 86.00 386.00 C 85.38 392.55 87.56 402.72 96.00 400.00
C 97.61 406.44 94.44 409.67 88.00 408.00
C 86.39 414.44 89.56 417.67 96.00 416.00
C 97.61 422.44 94.44 425.67 88.00 424.00
C 88.00 432.00 88.00 440.00 88.00 448.00
C 84.75 447.78 78.37 449.50 80.00 444.00
C 74.67 444.00 69.33 444.00 64.00 444.00
C 64.02 440.86 65.01 435.42 60.00 437.00
C 64.46 430.95 55.55 429.85 56.00 424.00
C 52.80 424.11 48.83 422.39 49.00 419.00
C 46.69 422.87 46.00 416.95 47.00 415.00
C 55.95 417.69 49.51 402.47 54.00 398.00
C 43.27 399.98 40.57 388.54 31.89 386.11 C 23.22 383.69 14.31 395.87 16.00 405.00
C 12.42 404.87 9.12 399.66 14.00 399.00
C 9.96 396.73 6.56 397.97 2.00 398.00
C 7.14 396.21 5.87 391.64 0.00 393.00 Z"/>
</g>
</svg>